<?xml version="1.0" encoding="utf-8"?>
<!-- Generator: Adobe Illustrator 27.0.1, SVG Export Plug-In . SVG Version: 6.00 Build 0)  -->
<svg version="1.1" id="Слой_1" xmlns="http://www.w3.org/2000/svg" xmlns:xlink="http://www.w3.org/1999/xlink" x="0px" y="0px"
	 viewBox="0 0 1750 700" style="enable-background:new 0 0 1750 700;" xml:space="preserve">
<style type="text/css">
	.st0{fill:#111111;}
	.st1{fill:#BA9E88;}
	.st2{fill:#22273F;}
	.st3{fill:#1E1E1E;}
	.st4{fill:none;stroke:#1E1E1E;stroke-width:14;stroke-miterlimit:10;}
	.st5{fill:#FFFFFF;}
	.st6{fill:#2B2B2B;}
	.st7{fill:#38514E;}
	.st8{fill:none;stroke:#000000;stroke-width:10;stroke-miterlimit:10;}
	.st9{fill:#333333;}
	.st10{fill:none;stroke:#22273F;stroke-width:3;stroke-miterlimit:10;}
	.st11{fill:none;stroke:#22273F;stroke-width:5;stroke-miterlimit:10;}
	.st12{fill:#3D5652;}
	.st13{fill:url(#SVGID_1_);}
	.st14{fill:url(#SVGID_00000119085074293778008320000005517360866858837640_);}
	.st15{fill:url(#SVGID_00000145753194682871430300000003447958597569507765_);}
	.st16{fill:url(#SVGID_00000147926087014932674170000003203081522753760438_);}
	.st17{fill:url(#SVGID_00000118372545098113402480000005134264847644438147_);}
	.st18{fill:url(#SVGID_00000127043799911911656560000011286098502189454976_);}
	.st19{fill:url(#SVGID_00000086653872857777372380000010678281447899011986_);}
	.st20{fill:url(#SVGID_00000004536624913580162160000001450456104037600918_);}
	.st21{fill:url(#SVGID_00000072243697504689389720000010648284170348880794_);}
	.st22{fill:url(#SVGID_00000147213461572579475940000017693311112557218706_);}
	.st23{fill:url(#SVGID_00000055673999120448572480000004497990919887160765_);}
	.st24{fill:url(#SVGID_00000163037956180143358650000006143555627021040776_);}
	.st25{fill:url(#SVGID_00000143616794526266308250000017778900338684199864_);}
	.st26{fill:url(#SVGID_00000008828114780846011550000002500835454999170963_);}
	.st27{fill:url(#SVGID_00000022557779784145295200000006283064094103096455_);}
	.st28{fill:url(#SVGID_00000127020335725395912650000017642390926443089818_);}
	.st29{fill:url(#SVGID_00000138551471854506071000000015203413951664418487_);}
	.st30{fill:url(#SVGID_00000054955425526698036120000002616857140972609463_);}
	.st31{fill:url(#SVGID_00000117676849377327061130000006243214016165976488_);}
	.st32{fill:url(#SVGID_00000084517172360764796490000010146233018577665182_);}
	.st33{fill:url(#SVGID_00000087388349347577998760000017197502397874936966_);}
	.st34{fill:url(#SVGID_00000100343865356516787620000010257324514509959085_);}
	.st35{fill:url(#SVGID_00000079474835913192332610000017528935511093962682_);}
	.st36{fill:url(#SVGID_00000106860815214808169230000009136134069178524574_);}
	.st37{fill:url(#SVGID_00000119809244473143030990000008302766284989308304_);}
	.st38{fill:url(#SVGID_00000016045224725626242740000001333646561783398300_);}
	.st39{fill:url(#SVGID_00000101088032141515194310000010857729703614512533_);}
	.st40{fill:url(#SVGID_00000167389807858424015390000003531588712144397976_);}
	.st41{fill:url(#SVGID_00000142148464690480656350000001859389604444716720_);}
	.st42{fill:url(#SVGID_00000070094752073559225540000005500005371132671885_);}
	.st43{fill:url(#SVGID_00000163768727161694489450000012711787429206235039_);}
	.st44{fill:url(#SVGID_00000100374272437311752900000015745231315460570557_);}
	.st45{fill:url(#SVGID_00000100362177195522640790000005366469909564244646_);}
	.st46{fill:url(#SVGID_00000124150693837549489990000010526017858891688066_);}
	.st47{fill:url(#SVGID_00000175308686677444620730000012275791430911549604_);}
	.st48{fill:url(#SVGID_00000063609153726946383390000015414762405608476833_);}
	.st49{fill:url(#SVGID_00000147216557232987308090000001514834684859866000_);}
	.st50{fill:url(#SVGID_00000160869052821313267830000011755882597804898955_);}
	.st51{fill:url(#SVGID_00000109719727366915238610000011897814576697158575_);}
	.st52{fill:url(#SVGID_00000000191684563482935590000016640650242173290943_);}
	.st53{fill:url(#SVGID_00000039121714798024911500000006355190720690583978_);}
	.st54{fill:url(#SVGID_00000137130424990496434740000017319553053909833620_);}
	.st55{fill:url(#SVGID_00000145740793977683781210000009589880218612519070_);}
	.st56{fill:url(#SVGID_00000127003003724424509820000011957513764535047560_);}
	.st57{fill:url(#SVGID_00000173863832445625664790000002970147958698758031_);}
	.st58{fill:url(#SVGID_00000173141586560642817090000018116748853843610283_);}
	.st59{fill:url(#SVGID_00000001630555981414418100000012538347551420397490_);}
	.st60{fill:url(#SVGID_00000090258319744646381370000008279270285110412177_);}
	.st61{fill:url(#SVGID_00000121242779095527116530000001099446270650865547_);}
	.st62{fill:url(#SVGID_00000013165282502832124850000009965075399430773171_);}
	.st63{fill:url(#SVGID_00000124151174581105798150000017922177577177097600_);}
	.st64{fill:url(#SVGID_00000044879387670779817590000013357237476598207647_);}
	.st65{fill:url(#SVGID_00000180334266544077257840000008334272274543729024_);}
	.st66{fill:url(#SVGID_00000067945874827841873400000007100737287725414577_);}
	.st67{fill:url(#SVGID_00000127745441233929678040000000443289573404082062_);}
	.st68{fill:url(#SVGID_00000117635377247093347910000011431653021421148094_);}
	.st69{fill:url(#SVGID_00000091711831294569090170000014735272721536238238_);}
	.st70{fill:url(#SVGID_00000176744273117474932720000003953811756400510123_);}
	.st71{fill:url(#SVGID_00000036967222190392244120000017382273618321517489_);}
	.st72{fill:url(#SVGID_00000041257053292384383210000000732925249198481595_);}
	.st73{fill:url(#SVGID_00000127011306186157016300000005002374800632834484_);}
	.st74{fill:url(#SVGID_00000059276803377989923540000015467241134083493017_);}
	.st75{fill:url(#SVGID_00000022533619772474915310000013705774730236628132_);}
	.st76{fill:url(#SVGID_00000040557765079942271480000007301576698644940976_);}
	.st77{fill:url(#SVGID_00000015315835436332060010000000709487187055555993_);}
	.st78{fill:url(#SVGID_00000053506853169592093140000018398995932596688268_);}
	.st79{fill:url(#SVGID_00000067220735878642823710000007276924044283621807_);}
	.st80{fill:url(#SVGID_00000153680194916744842600000001301827423100316338_);}
	.st81{fill:url(#SVGID_00000167380054754232411020000008567499937589518250_);}
	.st82{fill:url(#SVGID_00000179640565589508771280000014582072249797580421_);}
	.st83{fill:url(#SVGID_00000117668300690097463910000005654040574683370882_);}
	.st84{fill:url(#SVGID_00000114769832499219862740000011425726444436095362_);}
	.st85{fill:url(#SVGID_00000124855566069785217980000010436940188719178925_);}
	.st86{fill:url(#SVGID_00000019654062964798444250000009143689217343438212_);}
	.st87{fill:url(#SVGID_00000134217239755760398800000017620852868116214682_);}
	.st88{fill:url(#SVGID_00000084525545139298343080000004540240541410149053_);}
	.st89{fill:url(#SVGID_00000183931309873597139230000002795820078249577895_);}
	.st90{fill:url(#SVGID_00000085942654223761809010000014029488638641339017_);}
	.st91{fill:url(#SVGID_00000128482238734937656390000016636225831228953252_);}
	.st92{fill:url(#SVGID_00000011715951370545113040000016921805590788930187_);}
	.st93{fill:url(#SVGID_00000017475403648352695100000011144070409886624151_);}
	.st94{fill:url(#SVGID_00000077303602065323138980000017513952998793684134_);}
	.st95{fill:url(#SVGID_00000154416365222015892470000012030259185734221474_);}
	.st96{fill:url(#SVGID_00000146461502671213031680000017116453396592576148_);}
	.st97{fill:url(#SVGID_00000029025279983020941510000012094486017200941959_);}
	.st98{fill:url(#SVGID_00000081627616088534354880000012093808515426675126_);}
	.st99{fill:url(#SVGID_00000183937922228971479190000000831585194000077208_);}
	.st100{fill:url(#SVGID_00000109747229219273613750000005235347913628024460_);}
	.st101{fill:url(#SVGID_00000006702758549917741060000010670595353416819639_);}
	.st102{fill:url(#SVGID_00000028307786975693700790000017910694129331841152_);}
	.st103{fill:url(#SVGID_00000106139688049670567660000004896927440263234966_);}
	.st104{fill:url(#SVGID_00000011001079090821785690000000902373137776993428_);}
	.st105{fill:url(#SVGID_00000165223579448915014880000015228037241430161086_);}
	.st106{fill:url(#SVGID_00000076565277531556487980000000032990562928462225_);}
	.st107{fill:url(#SVGID_00000061456332508677881070000008797452417603591346_);}
	.st108{fill:url(#SVGID_00000101784755419197768080000011446518586118999965_);}
	.st109{fill:url(#SVGID_00000117663442163615836840000014512838658699006129_);}
	.st110{fill:url(#SVGID_00000021113861671294483780000008145461956398917530_);}
	.st111{fill:url(#SVGID_00000023276208610403113860000001133284780104532651_);}
	.st112{fill:url(#SVGID_00000110438306872111577400000003260887164412067476_);}
	.st113{fill:url(#SVGID_00000086670977733921255510000018210640391353297554_);}
	.st114{fill:url(#SVGID_00000040539431939720550250000010675357842753219482_);}
	.st115{fill:url(#SVGID_00000168108176049501457400000003199927690523443368_);}
	.st116{fill:url(#SVGID_00000004540387530182930730000000859485953277158837_);}
	.st117{fill:url(#SVGID_00000119831311443813836890000006826389327331467426_);}
	.st118{fill:url(#SVGID_00000093150261083952910890000015255030163014746002_);}
	.st119{fill:url(#SVGID_00000001665801328951746160000013187080910434228885_);}
	.st120{fill:url(#SVGID_00000062870422954687176320000001206194931465564320_);}
	.st121{fill:url(#SVGID_00000155853179977693842750000001742052818835468717_);}
	.st122{fill:url(#SVGID_00000056407545201509228500000012611645370160178091_);}
	.st123{fill:url(#SVGID_00000152243970533501499660000005461034690100897466_);}
	.st124{fill:url(#SVGID_00000009578691210156414830000016347282084025654680_);}
	.st125{fill:url(#SVGID_00000066517042787504790750000006717952525610916789_);}
	.st126{fill:url(#SVGID_00000133509337012105747840000000101272262656933802_);}
	.st127{fill:url(#SVGID_00000000189099833698639160000008137075225317087640_);}
	.st128{fill:url(#SVGID_00000110465884867012143540000002270680801872814508_);}
	.st129{fill:url(#SVGID_00000052816004354139147540000003841351464425355399_);}
	.st130{fill:url(#SVGID_00000114782015700918343640000016846325372577567154_);}
	.st131{fill:url(#SVGID_00000050623600850546231410000016344381244727238814_);}
</style>
<g>
	<polygon class="st2" points="857.87,338.18 770.27,338.18 770.27,300.93 845,300.93 845,271.73 770.27,271.73 770.27,237.01 
		854.88,237.01 854.88,207.12 733.25,207.12 733.25,368.07 857.87,368.07 	"/>
	<polygon class="st2" points="1069.41,368.07 1069.18,207.12 1038.37,207.12 979.19,307.23 918.8,207.12 887.99,207.12 
		887.99,368.07 922.94,368.07 922.94,273.19 970.08,350.83 986.86,350.83 1034.25,271.78 1034.46,368.07 	"/>
	<rect x="1120.1" y="288.2" class="st2" width="81.86" height="27.3"/>
	<path class="st2" d="M1290.14,323.7h32.19c14.41,0,26.82-2.37,37.25-7.13c10.42-4.75,18.47-11.46,24.14-20.12
		c5.67-8.66,8.51-19.04,8.51-31.16c0-11.96-2.84-22.3-8.51-31.04c-5.67-8.74-13.72-15.44-24.14-20.12
		c-10.43-4.67-22.84-7.01-37.25-7.01h-69.67v160.95h37.48V323.7z M1290.14,237.47h30.12c11.34,0,19.93,2.42,25.75,7.24
		c5.82,4.83,8.74,11.69,8.74,20.58c0,8.89-2.91,15.79-8.74,20.7c-5.83,4.91-14.41,7.36-25.75,7.36h-30.12V237.47z"/>
	<path class="st2" d="M1460.29,250.35c4.6-4.6,10.04-8.16,16.33-10.69c6.28-2.53,13.18-3.79,20.69-3.79
		c7.97,0,15.37,1.61,22.19,4.83c6.82,3.22,12.91,7.97,18.28,14.26l24.14-22.07c-7.67-9.35-17.17-16.44-28.51-21.27
		c-11.35-4.83-23.99-7.24-37.94-7.24c-12.42,0-23.95,2.04-34.61,6.09c-10.65,4.06-19.93,9.85-27.82,17.36
		c-7.9,7.51-14.03,16.32-18.4,26.44c-4.37,10.12-6.55,21.23-6.55,33.34c0,12.11,2.18,23.22,6.55,33.34
		c4.37,10.12,10.46,18.93,18.28,26.44c7.82,7.51,17.05,13.3,27.71,17.36c10.65,4.06,22.19,6.09,34.6,6.09
		c14.1,0,26.82-2.46,38.17-7.36c11.34-4.9,20.84-12.03,28.51-21.38l-24.14-22.07c-5.37,6.29-11.46,11.08-18.28,14.37
		c-6.82,3.3-14.22,4.94-22.19,4.94c-7.51,0-14.41-1.26-20.69-3.79c-6.29-2.53-11.73-6.09-16.33-10.69
		c-4.6-4.6-8.16-10.04-10.69-16.32c-2.53-6.28-3.79-13.26-3.79-20.92c0-7.66,1.26-14.64,3.79-20.92
		C1452.13,260.39,1455.69,254.95,1460.29,250.35z"/>
	<path class="st2" d="M1717.13,234.25c-5.67-8.74-13.72-15.44-24.14-20.12c-10.43-4.67-22.84-7.01-37.25-7.01h-69.67v160.95h37.48
		V323.7h32.19c14.41,0,26.82-2.37,37.25-7.13c10.42-4.75,18.47-11.46,24.14-20.12c5.67-8.66,8.51-19.04,8.51-31.16
		C1725.63,253.34,1722.8,242.99,1717.13,234.25z M1679.42,285.99c-5.83,4.91-14.41,7.36-25.75,7.36h-30.12v-55.88h30.12
		c11.34,0,19.93,2.42,25.75,7.24c5.82,4.83,8.74,11.69,8.74,20.58C1688.16,274.19,1685.24,281.08,1679.42,285.99z"/>
	<g>
		<polygon class="st12" points="775.48,434.65 775.48,427.65 740.25,427.65 740.25,476.68 776.46,476.68 776.46,469.67 
			748.38,469.67 748.38,455.18 772.47,455.18 772.47,448.38 748.38,448.38 748.38,434.65 		"/>
		<path class="st12" d="M814.49,476.68h7.84v-21.36c0-3.74-0.68-6.82-2.03-9.25s-3.21-4.23-5.57-5.39
			c-2.36-1.17-5.03-1.75-8.02-1.75c-3.27,0-6.15,0.64-8.65,1.93c-1.74,0.9-3.17,2.06-4.31,3.47v-4.98h-7.49v37.33h7.85v-19.05
			c0-2.57,0.44-4.71,1.33-6.44c0.89-1.73,2.17-3.02,3.85-3.89c1.68-0.86,3.6-1.29,5.74-1.29c2.99,0,5.31,0.84,6.97,2.52
			c1.66,1.69,2.49,4.28,2.49,7.78V476.68z"/>
		<path class="st12" d="M840.05,441.17c-2.9,1.49-5.17,3.6-6.83,6.3c-1.66,2.71-2.49,5.88-2.49,9.53c0,3.6,0.83,6.74,2.49,9.45
			c1.66,2.71,3.93,4.82,6.83,6.34c2.89,1.52,6.16,2.28,9.8,2.28c3.08,0,5.92-0.64,8.51-1.93c1.62-0.8,3.01-1.9,4.24-3.24v2.15
			c0,3.97-0.99,6.92-2.98,8.86c-1.99,1.94-5.08,2.91-9.28,2.91c-2.66,0-5.25-0.41-7.77-1.23c-2.52-0.81-4.62-1.92-6.3-3.33
			l-3.71,6.03c2.05,1.77,4.73,3.11,8.02,4.03c3.29,0.91,6.64,1.36,10.05,1.36c6.49,0,11.42-1.57,14.78-4.73
			c3.36-3.16,5.04-8.04,5.04-14.67v-31.93h-7.49v5.12c-1.3-1.52-2.82-2.74-4.59-3.62c-2.59-1.28-5.43-1.93-8.51-1.93
			C846.21,438.93,842.95,439.67,840.05,441.17z M857,447.19c1.82,0.94,3.23,2.24,4.24,3.92s1.51,3.64,1.51,5.89
			c0,2.24-0.5,4.19-1.51,5.84c-1,1.66-2.42,2.98-4.24,3.96c-1.82,0.98-3.9,1.47-6.23,1.47c-2.38,0-4.47-0.49-6.27-1.47
			c-1.8-0.98-3.21-2.3-4.24-3.96c-1.03-1.65-1.54-3.61-1.54-5.84c0-2.24,0.51-4.2,1.54-5.89c1.03-1.68,2.44-2.99,4.24-3.92
			c1.8-0.93,3.89-1.4,6.27-1.4C853.1,445.79,855.18,446.26,857,447.19z"/>
		<rect x="882.56" y="439.35" class="st12" width="7.84" height="37.33"/>
		<path class="st12" d="M886.48,432.76c1.54,0,2.78-0.48,3.71-1.43c0.93-0.95,1.4-2.14,1.4-3.54c0-1.35-0.48-2.49-1.44-3.4
			c-0.96-0.91-2.18-1.36-3.68-1.36c-1.5,0-2.72,0.48-3.68,1.43c-0.96,0.95-1.44,2.11-1.44,3.47c0,1.35,0.48,2.5,1.44,3.43
			C883.76,432.3,884.99,432.76,886.48,432.76z"/>
		<path class="st12" d="M930.74,456.29v20.38h7.84v-21.36c0-3.74-0.68-6.82-2.03-9.25c-1.35-2.43-3.21-4.23-5.57-5.39
			c-2.36-1.17-5.03-1.75-8.02-1.75c-3.27,0-6.15,0.64-8.65,1.93c-1.74,0.9-3.17,2.06-4.31,3.47v-4.98h-7.49v37.33h7.84v-19.05
			c0-2.57,0.44-4.71,1.33-6.44c0.89-1.73,2.17-3.02,3.85-3.89c1.68-0.86,3.59-1.29,5.74-1.29c2.99,0,5.31,0.84,6.97,2.52
			C929.92,450.21,930.74,452.79,930.74,456.29z"/>
		<path class="st12" d="M984.71,459.52c0.02-0.46,0.04-0.86,0.04-1.19c0-3.92-0.8-7.33-2.38-10.22c-1.59-2.9-3.79-5.15-6.62-6.76
			c-2.83-1.61-6.04-2.41-9.63-2.41c-3.69,0-6.97,0.81-9.84,2.45c-2.87,1.64-5.14,3.9-6.79,6.8c-1.66,2.89-2.49,6.18-2.49,9.87
			c0,3.69,0.85,6.97,2.56,9.84c1.7,2.87,4.09,5.12,7.14,6.76c3.06,1.63,6.64,2.45,10.75,2.45c3.13,0,5.96-0.52,8.51-1.55
			c2.54-1.02,4.66-2.52,6.34-4.48l-4.27-5.04c-1.31,1.45-2.83,2.51-4.55,3.19c-1.73,0.68-3.67,1.01-5.81,1.01
			c-2.57,0-4.82-0.49-6.76-1.47c-1.94-0.98-3.44-2.37-4.52-4.17c-0.71-1.18-1.16-2.48-1.4-3.88h29.62
			C984.65,460.38,984.68,459.98,984.71,459.52z M954.91,455.18c0.2-1.5,0.62-2.87,1.29-4.1c0.96-1.75,2.28-3.1,3.96-4.06
			c1.68-0.95,3.67-1.43,5.95-1.43c2.19,0,4.13,0.48,5.81,1.43c1.68,0.96,3.01,2.3,3.99,4.03c0.71,1.25,1.14,2.63,1.31,4.13H954.91z"
			/>
		<path class="st12" d="M1019.02,441.34c-2.82-1.61-6.03-2.41-9.63-2.41c-3.69,0-6.97,0.81-9.84,2.45c-2.87,1.64-5.14,3.9-6.79,6.8
			c-1.66,2.89-2.49,6.18-2.49,9.87c0,3.69,0.85,6.97,2.56,9.84c1.7,2.87,4.09,5.12,7.14,6.76c3.06,1.63,6.64,2.45,10.75,2.45
			c3.13,0,5.96-0.52,8.51-1.55c2.54-1.02,4.66-2.52,6.34-4.48l-4.27-5.04c-1.31,1.45-2.83,2.51-4.55,3.19
			c-1.73,0.68-3.67,1.01-5.81,1.01c-2.57,0-4.82-0.49-6.76-1.47c-1.94-0.98-3.44-2.37-4.52-4.17c-0.71-1.18-1.16-2.48-1.4-3.88
			h29.62c0.05-0.33,0.08-0.73,0.11-1.19c0.02-0.46,0.04-0.86,0.04-1.19c0-3.92-0.8-7.33-2.38-10.22
			C1024.05,445.21,1021.85,442.96,1019.02,441.34z M998.19,455.18c0.2-1.5,0.62-2.87,1.29-4.1c0.96-1.75,2.28-3.1,3.96-4.06
			c1.68-0.95,3.67-1.43,5.95-1.43c2.19,0,4.13,0.48,5.81,1.43c1.68,0.96,3.01,2.3,3.99,4.03c0.71,1.25,1.14,2.63,1.32,4.13H998.19z"
			/>
		<path class="st12" d="M1036.92,439.35v37.33h7.84v-18.21c0-4.02,1-7.02,3.01-9c2.01-1.99,4.72-2.98,8.12-2.98
			c0.28,0,0.57,0.01,0.88,0.04c0.3,0.02,0.62,0.06,0.95,0.11v-7.71c-3.55,0-6.53,0.66-8.93,1.96c-1.86,1.01-3.31,2.38-4.38,4.09
			v-5.63H1036.92z"/>
		<rect x="1065.63" y="439.35" class="st12" width="7.85" height="37.33"/>
		<path class="st12" d="M1064.44,427.93c0,1.35,0.48,2.5,1.44,3.43c0.96,0.94,2.18,1.4,3.68,1.4c1.54,0,2.78-0.48,3.71-1.43
			c0.93-0.95,1.4-2.14,1.4-3.54c0-1.35-0.48-2.49-1.44-3.4c-0.96-0.91-2.18-1.36-3.68-1.36c-1.5,0-2.72,0.48-3.68,1.43
			C1064.92,425.42,1064.44,426.58,1064.44,427.93z"/>
		<path class="st12" d="M1093.43,457.62c0-2.57,0.44-4.71,1.33-6.44c0.88-1.73,2.17-3.02,3.85-3.89c1.68-0.86,3.6-1.29,5.74-1.29
			c2.99,0,5.31,0.84,6.97,2.52c1.66,1.69,2.49,4.28,2.49,7.78v20.38h7.84v-21.36c0-3.74-0.68-6.82-2.03-9.25
			c-1.35-2.43-3.21-4.23-5.57-5.39c-2.36-1.17-5.03-1.75-8.02-1.75c-3.27,0-6.15,0.64-8.65,1.93c-1.74,0.9-3.17,2.06-4.31,3.47
			v-4.98h-7.49v37.33h7.84V457.62z"/>
		<path class="st12" d="M1162.28,444.47c-1.3-1.52-2.82-2.74-4.59-3.62c-2.59-1.28-5.43-1.93-8.51-1.93c-3.64,0-6.91,0.74-9.81,2.24
			c-2.9,1.49-5.17,3.6-6.83,6.3c-1.66,2.71-2.49,5.88-2.49,9.53c0,3.6,0.83,6.74,2.49,9.45c1.66,2.71,3.93,4.82,6.83,6.34
			c2.9,1.52,6.16,2.28,9.81,2.28c3.08,0,5.92-0.64,8.51-1.93c1.62-0.8,3.01-1.9,4.24-3.24v2.15c0,3.97-0.99,6.92-2.98,8.86
			c-1.99,1.94-5.08,2.91-9.28,2.91c-2.66,0-5.25-0.41-7.77-1.23c-2.52-0.81-4.62-1.92-6.3-3.33l-3.71,6.03
			c2.05,1.77,4.73,3.11,8.02,4.03c3.29,0.91,6.64,1.36,10.05,1.36c6.49,0,11.42-1.57,14.78-4.73c3.36-3.16,5.04-8.04,5.04-14.67
			v-31.93h-7.49V444.47z M1160.56,462.84c-1,1.66-2.42,2.98-4.24,3.96c-1.82,0.98-3.9,1.47-6.23,1.47c-2.38,0-4.47-0.49-6.27-1.47
			c-1.8-0.98-3.21-2.3-4.24-3.96c-1.03-1.65-1.54-3.61-1.54-5.84c0-2.24,0.51-4.2,1.54-5.89c1.03-1.68,2.44-2.99,4.24-3.92
			c1.8-0.93,3.89-1.4,6.27-1.4c2.34,0,4.41,0.47,6.23,1.4c1.82,0.94,3.23,2.24,4.24,3.92c1,1.68,1.5,3.64,1.5,5.89
			C1162.07,459.23,1161.57,461.19,1160.56,462.84z"/>
		<polygon class="st12" points="1275.94,427.66 1269.29,427.66 1249.67,460.87 1229.79,427.66 1223.14,427.66 1223.14,476.68 
			1230.91,476.68 1230.91,443.3 1247.65,471 1251.43,471 1268.18,442.97 1268.24,476.68 1276.01,476.68 		"/>
		<path class="st12" d="M1321.05,471.07l-4.27-5.04c-1.31,1.45-2.83,2.51-4.55,3.19c-1.73,0.68-3.67,1.02-5.81,1.02
			c-2.57,0-4.82-0.49-6.76-1.47c-1.94-0.98-3.45-2.37-4.52-4.17c-0.71-1.19-1.16-2.49-1.4-3.89h29.62c0.05-0.33,0.08-0.72,0.11-1.19
			c0.02-0.47,0.04-0.87,0.04-1.19c0-3.92-0.79-7.32-2.38-10.22c-1.59-2.89-3.79-5.15-6.62-6.76c-2.83-1.61-6.03-2.42-9.63-2.42
			c-3.69,0-6.97,0.82-9.84,2.45c-2.87,1.63-5.14,3.9-6.8,6.79c-1.66,2.9-2.49,6.19-2.49,9.88c0,3.69,0.85,6.97,2.56,9.84
			c1.7,2.88,4.09,5.12,7.14,6.76c3.06,1.64,6.64,2.45,10.75,2.45c3.13,0,5.96-0.52,8.51-1.54
			C1317.25,474.53,1319.37,473.04,1321.05,471.07z M1294.96,451.08c0.96-1.75,2.28-3.11,3.96-4.06c1.68-0.96,3.67-1.43,5.95-1.43
			c2.19,0,4.13,0.48,5.81,1.43c1.68,0.95,3.01,2.3,3.99,4.03c0.71,1.25,1.14,2.63,1.31,4.13h-22.32
			C1293.86,453.68,1294.29,452.31,1294.96,451.08z"/>
		<path class="st12" d="M1342.83,447.3c1.77-1.01,3.83-1.51,6.16-1.51c1.92,0,3.7,0.43,5.36,1.3c1.66,0.86,3.07,2.18,4.24,3.96
			l6.02-3.64c-1.45-2.8-3.52-4.92-6.23-6.34c-2.71-1.42-5.81-2.14-9.32-2.14c-3.88,0-7.32,0.82-10.33,2.45
			c-3.01,1.63-5.38,3.89-7.11,6.76c-1.73,2.87-2.59,6.18-2.59,9.91c0,3.69,0.86,6.97,2.59,9.84c1.73,2.88,4.1,5.12,7.11,6.76
			c3.01,1.64,6.45,2.45,10.33,2.45c3.5,0,6.61-0.73,9.32-2.17c2.71-1.45,4.78-3.5,6.23-6.16l-6.02-3.78
			c-1.17,1.82-2.58,3.15-4.24,3.99c-1.66,0.84-3.44,1.26-5.36,1.26c-2.33,0-4.39-0.49-6.16-1.47c-1.78-0.98-3.19-2.39-4.24-4.24
			c-1.05-1.84-1.57-4-1.57-6.48c0-2.52,0.52-4.7,1.57-6.52C1339.64,449.71,1341.05,448.3,1342.83,447.3z"/>
		<path class="st12" d="M1408.45,476.68v-21.36c0-3.74-0.68-6.82-2.03-9.25c-1.35-2.42-3.21-4.22-5.57-5.39
			c-2.36-1.17-5.03-1.75-8.02-1.75c-3.27,0-6.15,0.64-8.65,1.93c-1.57,0.81-2.87,1.86-3.96,3.08v-19.22h-7.85v51.97h7.85v-19.05
			c0-2.57,0.44-4.71,1.33-6.45c0.89-1.72,2.17-3.02,3.85-3.88c1.68-0.87,3.6-1.3,5.74-1.3c2.99,0,5.31,0.84,6.97,2.52
			c1.66,1.68,2.49,4.28,2.49,7.78v20.38H1408.45z"/>
		<path class="st12" d="M1434.08,438.93c-2.99,0-5.85,0.41-8.58,1.23c-2.73,0.81-5.1,2-7.11,3.54l3.29,5.81
			c1.4-1.17,3.13-2.08,5.18-2.76c2.05-0.68,4.16-1.01,6.3-1.01c3.18,0,5.57,0.73,7.18,2.2c1.61,1.47,2.42,3.56,2.42,6.27v0.77
			h-10.09c-3.74,0-6.72,0.49-8.96,1.48c-2.24,0.98-3.86,2.3-4.87,3.95c-1,1.66-1.5,3.54-1.5,5.64c0,2.15,0.57,4.06,1.71,5.74
			c1.14,1.68,2.77,2.99,4.87,3.92c2.1,0.93,4.57,1.4,7.42,1.4c3.27,0,6-0.6,8.19-1.79c1.54-0.84,2.75-1.91,3.64-3.2v4.56h7.42
			v-22.06c0-5.32-1.45-9.27-4.34-11.84C1443.37,440.22,1439.31,438.93,1434.08,438.93z M1442.77,465.06
			c-0.75,2.05-2.03,3.58-3.85,4.58c-1.82,1.01-3.88,1.5-6.16,1.5c-2.38,0-4.24-0.47-5.57-1.43c-1.33-0.95-2-2.3-2-4.03
			c0-1.4,0.53-2.61,1.58-3.64c1.05-1.02,3.16-1.54,6.34-1.54h9.66V465.06z"/>
		<path class="st12" d="M1490.92,440.68c-2.36-1.17-5.03-1.75-8.02-1.75c-3.27,0-6.15,0.64-8.65,1.93c-1.74,0.9-3.17,2.07-4.31,3.48
			v-4.98h-7.49v37.33h7.85v-19.05c0-2.57,0.44-4.71,1.33-6.45c0.89-1.72,2.17-3.02,3.85-3.88c1.68-0.87,3.6-1.3,5.74-1.3
			c2.99,0,5.31,0.84,6.97,2.52c1.66,1.68,2.49,4.28,2.49,7.78v20.38h7.84v-21.36c0-3.74-0.68-6.82-2.03-9.25
			C1495.13,443.65,1493.27,441.85,1490.92,440.68z"/>
		<path class="st12" d="M1514.2,423.03c-1.5,0-2.72,0.48-3.68,1.43c-0.96,0.96-1.43,2.11-1.43,3.47c0,1.36,0.48,2.5,1.43,3.44
			c0.96,0.93,2.18,1.4,3.68,1.4c1.54,0,2.78-0.48,3.71-1.43c0.93-0.96,1.4-2.14,1.4-3.54c0-1.36-0.48-2.49-1.44-3.4
			C1516.92,423.49,1515.7,423.03,1514.2,423.03z"/>
		<rect x="1510.28" y="439.35" class="st12" width="7.85" height="37.33"/>
		<path class="st12" d="M1553.28,457.74c-1.36-0.73-2.86-1.28-4.52-1.68c-1.66-0.4-3.32-0.71-4.97-0.95
			c-1.66-0.23-3.17-0.53-4.55-0.91c-1.38-0.38-2.49-0.86-3.33-1.43c-0.84-0.59-1.26-1.46-1.26-2.63c0-1.35,0.68-2.44,2.03-3.26
			c1.36-0.82,3.38-1.22,6.09-1.22c1.82,0,3.63,0.2,5.43,0.59c1.8,0.4,3.56,1.14,5.29,2.21l3.22-6.24c-1.64-1.02-3.72-1.83-6.27-2.41
			c-2.55-0.59-5.08-0.88-7.6-0.88c-3.22,0-6.02,0.48-8.4,1.44c-2.38,0.95-4.25,2.3-5.6,4.02c-1.36,1.73-2.03,3.76-2.03,6.1
			c0,2.15,0.42,3.89,1.26,5.22c0.84,1.33,1.95,2.37,3.33,3.12c1.38,0.75,2.9,1.32,4.55,1.72c1.66,0.4,3.33,0.71,5.01,0.95
			c1.68,0.23,3.21,0.49,4.59,0.77c1.38,0.28,2.49,0.71,3.33,1.3c0.84,0.58,1.26,1.39,1.26,2.41c0,1.4-0.65,2.5-1.96,3.29
			c-1.31,0.8-3.38,1.19-6.23,1.19c-2.38,0-4.74-0.35-7.07-1.05c-2.33-0.7-4.29-1.59-5.88-2.66l-3.29,6.16
			c1.63,1.17,3.86,2.16,6.69,2.98c2.82,0.81,5.82,1.22,9,1.22c3.36,0,6.27-0.46,8.72-1.36c2.45-0.91,4.35-2.22,5.71-3.92
			c1.35-1.7,2.03-3.72,2.03-6.06c0-2.05-0.42-3.72-1.26-5.01C1555.73,459.46,1554.63,458.46,1553.28,457.74z"/>
		<path class="st12" d="M1620.55,440.68c-2.31-1.17-4.98-1.75-8.02-1.75c-3.64,0-6.89,0.85-9.73,2.56c-1.81,1.08-3.24,2.4-4.37,3.91
			c-0.92-1.57-2.08-2.89-3.54-3.88c-2.57-1.73-5.6-2.59-9.11-2.59c-3.13,0-5.89,0.64-8.3,1.93c-1.66,0.89-3.01,2.04-4.1,3.42v-4.92
			h-7.49v37.33h7.85v-19.05c0-2.57,0.42-4.71,1.26-6.45c0.84-1.72,2.05-3.02,3.64-3.88c1.59-0.87,3.38-1.3,5.39-1.3
			c2.85,0,5.05,0.84,6.62,2.52c1.56,1.68,2.35,4.28,2.35,7.78v20.38h7.84v-19.05c0-2.57,0.43-4.71,1.3-6.45
			c0.86-1.72,2.08-3.02,3.64-3.88c1.56-0.87,3.35-1.3,5.36-1.3c2.9,0,5.11,0.84,6.66,2.52c1.54,1.68,2.31,4.28,2.31,7.78v20.38h7.91
			v-21.36c0-3.74-0.66-6.82-2-9.25C1624.68,443.65,1622.86,441.85,1620.55,440.68z"/>
		<path class="st12" d="M1662.81,457.74c-1.36-0.73-2.86-1.28-4.52-1.68s-3.31-0.71-4.97-0.95c-1.66-0.23-3.18-0.53-4.55-0.91
			c-1.38-0.38-2.49-0.86-3.33-1.43c-0.84-0.59-1.26-1.46-1.26-2.63c0-1.35,0.68-2.44,2.03-3.26c1.35-0.82,3.38-1.22,6.09-1.22
			c1.82,0,3.63,0.2,5.43,0.59c1.8,0.4,3.56,1.14,5.29,2.21l3.22-6.24c-1.63-1.02-3.72-1.83-6.27-2.41s-5.08-0.88-7.6-0.88
			c-3.22,0-6.02,0.48-8.4,1.44c-2.38,0.95-4.25,2.3-5.6,4.02c-1.36,1.73-2.03,3.76-2.03,6.1c0,2.15,0.42,3.89,1.26,5.22
			c0.84,1.33,1.95,2.37,3.33,3.12c1.38,0.75,2.89,1.32,4.55,1.72c1.65,0.4,3.33,0.71,5.01,0.95c1.68,0.23,3.21,0.49,4.59,0.77
			c1.38,0.28,2.49,0.71,3.32,1.3c0.84,0.58,1.26,1.39,1.26,2.41c0,1.4-0.66,2.5-1.96,3.29c-1.31,0.8-3.39,1.19-6.23,1.19
			c-2.38,0-4.74-0.35-7.07-1.05c-2.34-0.7-4.3-1.59-5.88-2.66l-3.29,6.16c1.63,1.17,3.86,2.16,6.69,2.98c2.82,0.81,5.82,1.22,9,1.22
			c3.36,0,6.27-0.46,8.72-1.36c2.45-0.91,4.35-2.22,5.71-3.92c1.36-1.7,2.03-3.72,2.03-6.06c0-2.05-0.42-3.72-1.26-5.01
			C1665.27,459.46,1664.17,458.46,1662.81,457.74z"/>
		<path class="st12" d="M771,523.19c-3.08-1.38-6.79-2.07-11.14-2.07h-19.61v49.03h8.13v-14.5h11.49c4.34,0,8.05-0.69,11.14-2.07
			c3.08-1.38,5.44-3.35,7.07-5.92c1.63-2.56,2.45-5.62,2.45-9.17c0-3.6-0.82-6.7-2.45-9.31C776.44,526.56,774.08,524.56,771,523.19z
			 M769.14,545.95c-2.12,1.8-5.31,2.7-9.56,2.7h-11.21v-20.52h11.21c4.25,0,7.43,0.9,9.56,2.7c2.12,1.8,3.19,4.35,3.19,7.66
			C772.33,541.67,771.27,544.15,769.14,545.95z"/>
		<path class="st12" d="M796.35,538.45v-5.63h-7.49v37.33h7.84v-18.21c0-4.02,1-7.02,3.01-9c2.01-1.99,4.71-2.98,8.12-2.98
			c0.28,0,0.57,0.01,0.87,0.04c0.3,0.02,0.62,0.06,0.95,0.1v-7.7c-3.55,0-6.53,0.66-8.93,1.96
			C798.87,535.37,797.41,536.74,796.35,538.45z"/>
		<path class="st12" d="M853.22,551.51c0-3.74-0.84-7.04-2.52-9.91c-1.68-2.87-4-5.12-6.97-6.76c-2.97-1.63-6.34-2.45-10.12-2.45
			c-3.83,0-7.21,0.81-10.16,2.45c-2.94,1.64-5.28,3.89-7,6.76c-1.73,2.87-2.59,6.17-2.59,9.91c0,3.69,0.86,6.97,2.59,9.84
			c1.73,2.87,4.06,5.12,7,6.76c2.94,1.63,6.33,2.45,10.16,2.45c3.73,0,7.1-0.82,10.08-2.45c2.99-1.63,5.32-3.89,7-6.76
			C852.38,558.48,853.22,555.2,853.22,551.51z M843.8,557.96c-1,1.87-2.39,3.29-4.17,4.27c-1.77,0.98-3.78,1.47-6.02,1.47
			c-2.29,0-4.3-0.49-6.02-1.47c-1.73-0.98-3.12-2.4-4.17-4.27c-1.05-1.87-1.58-4.02-1.58-6.45c0-2.52,0.53-4.69,1.58-6.51
			c1.05-1.82,2.44-3.23,4.17-4.24c1.73-1,3.74-1.5,6.02-1.5c2.24,0,4.25,0.5,6.02,1.5c1.77,1.01,3.16,2.42,4.17,4.24
			c1,1.82,1.51,3.99,1.51,6.51C845.3,553.94,844.8,556.09,843.8,557.96z"/>
		<path class="st12" d="M862.46,571.41c0,2.05-0.47,3.6-1.4,4.62c-0.94,1.03-2.22,1.55-3.85,1.55c-2.19,0-3.95-0.52-5.25-1.55
			l-2.45,5.96c0.98,0.75,2.19,1.29,3.64,1.64c1.45,0.35,2.99,0.53,4.62,0.53c4.02,0,7.11-1.15,9.28-3.47
			c2.17-2.31,3.26-5.48,3.26-9.49v-38.38h-7.84V571.41z"/>
		<path class="st12" d="M866.38,516.5c-1.49,0-2.72,0.48-3.68,1.43c-0.96,0.95-1.44,2.11-1.44,3.47c0,1.35,0.48,2.5,1.44,3.43
			c0.96,0.94,2.18,1.4,3.68,1.4c1.54,0,2.78-0.48,3.71-1.44c0.93-0.95,1.4-2.14,1.4-3.54c0-1.35-0.48-2.49-1.43-3.4
			C869.1,516.95,867.88,516.5,866.38,516.5z"/>
		<path class="st12" d="M907.81,534.81c-2.82-1.61-6.04-2.41-9.63-2.41c-3.69,0-6.97,0.81-9.84,2.45c-2.87,1.64-5.14,3.9-6.79,6.8
			c-1.66,2.89-2.48,6.18-2.48,9.87c0,3.69,0.85,6.97,2.56,9.84c1.7,2.87,4.09,5.12,7.14,6.76c3.06,1.63,6.64,2.45,10.75,2.45
			c3.13,0,5.96-0.52,8.51-1.55c2.54-1.02,4.66-2.52,6.34-4.48l-4.27-5.04c-1.31,1.45-2.83,2.51-4.55,3.19
			c-1.73,0.68-3.67,1.01-5.81,1.01c-2.57,0-4.82-0.49-6.76-1.47c-1.94-0.98-3.44-2.37-4.52-4.17c-0.71-1.18-1.16-2.48-1.4-3.88
			h29.62c0.05-0.33,0.08-0.73,0.11-1.19c0.02-0.46,0.04-0.86,0.04-1.19c0-3.92-0.79-7.33-2.38-10.22
			C912.84,538.67,910.63,536.43,907.81,534.81z M886.97,548.65c0.2-1.5,0.62-2.87,1.3-4.1c0.96-1.75,2.28-3.1,3.96-4.06
			c1.68-0.95,3.67-1.43,5.95-1.43c2.19,0,4.13,0.48,5.81,1.43c1.68,0.96,3.01,2.3,3.99,4.03c0.71,1.25,1.14,2.63,1.31,4.13H886.97z"
			/>
		<path class="st12" d="M936.14,540.76c1.77-1,3.83-1.5,6.16-1.5c1.91,0,3.7,0.43,5.36,1.29c1.66,0.87,3.07,2.18,4.24,3.96
			l6.02-3.64c-1.45-2.8-3.53-4.91-6.23-6.34c-2.71-1.43-5.81-2.14-9.31-2.14c-3.88,0-7.32,0.81-10.33,2.45
			c-3.01,1.64-5.38,3.89-7.11,6.76c-1.73,2.87-2.59,6.17-2.59,9.91c0,3.69,0.86,6.97,2.59,9.84c1.73,2.87,4.1,5.12,7.11,6.76
			c3.01,1.63,6.45,2.45,10.33,2.45c3.5,0,6.61-0.73,9.31-2.17c2.71-1.45,4.79-3.5,6.23-6.17l-6.02-3.78
			c-1.17,1.82-2.58,3.16-4.24,3.99c-1.66,0.84-3.44,1.26-5.36,1.26c-2.34,0-4.39-0.49-6.16-1.47c-1.77-0.98-3.19-2.39-4.24-4.23
			c-1.05-1.85-1.58-4-1.58-6.48c0-2.52,0.53-4.69,1.58-6.51C932.95,543.18,934.36,541.77,936.14,540.76z"/>
		<path class="st12" d="M980.96,563.98c-1.73,0-3.07-0.5-4.03-1.5c-0.96-1-1.43-2.44-1.43-4.31v-18.84h10.29v-6.44H975.5v-8.27
			h-7.92v8.27h-6.16v6.44h6.16v19.05c0,3.97,1.09,7,3.26,9.07c2.17,2.08,5.22,3.12,9.14,3.12c1.58,0,3.12-0.21,4.59-0.63
			c1.47-0.42,2.72-1.05,3.75-1.89l-2.38-5.6C984.58,563.47,982.92,563.98,980.96,563.98z"/>
		<path class="st12" d="M1047.89,532.82c1.63-1.59,3.57-2.83,5.81-3.71c2.24-0.89,4.67-1.33,7.28-1.33c2.61,0,5.04,0.47,7.28,1.41
			c2.24,0.93,4.3,2.4,6.16,4.41l5.18-5.11c-2.24-2.66-4.98-4.66-8.23-5.99c-3.25-1.33-6.83-2-10.75-2c-3.74,0-7.19,0.62-10.36,1.86
			c-3.18,1.24-5.95,2.99-8.33,5.26c-2.38,2.26-4.23,4.92-5.53,7.98c-1.31,3.06-1.96,6.41-1.96,10.05c0,3.64,0.65,7,1.96,10.05
			c1.31,3.06,3.14,5.72,5.5,7.98c2.36,2.27,5.12,4.02,8.3,5.25c3.17,1.24,6.63,1.86,10.37,1.86c3.97,0,7.57-0.67,10.82-2.03
			c3.25-1.36,5.99-3.37,8.23-6.03l-5.18-5.11c-1.87,2.06-3.92,3.55-6.16,4.48c-2.24,0.94-4.67,1.4-7.28,1.4
			c-2.62,0-5.04-0.44-7.28-1.33c-2.24-0.88-4.18-2.13-5.81-3.71c-1.63-1.59-2.91-3.48-3.82-5.67c-0.91-2.19-1.36-4.57-1.36-7.14
			c0-2.56,0.45-4.95,1.36-7.14C1044.99,536.3,1046.26,534.41,1047.89,532.82z"/>
		<path class="st12" d="M1113.2,534.84c-2.97-1.63-6.34-2.45-10.12-2.45c-3.83,0-7.21,0.81-10.16,2.45c-2.94,1.64-5.28,3.89-7,6.76
			c-1.73,2.87-2.59,6.17-2.59,9.91c0,3.69,0.86,6.97,2.59,9.84c1.73,2.87,4.06,5.12,7,6.76c2.94,1.63,6.33,2.45,10.16,2.45
			c3.73,0,7.1-0.82,10.08-2.45c2.99-1.63,5.32-3.89,7.01-6.76c1.68-2.87,2.52-6.15,2.52-9.84c0-3.74-0.84-7.04-2.52-9.91
			C1118.49,538.73,1116.17,536.48,1113.2,534.84z M1113.27,557.96c-1,1.87-2.39,3.29-4.17,4.27c-1.78,0.98-3.78,1.47-6.02,1.47
			c-2.29,0-4.3-0.49-6.02-1.47c-1.73-0.98-3.12-2.4-4.17-4.27c-1.05-1.87-1.58-4.02-1.58-6.45c0-2.52,0.52-4.69,1.58-6.51
			c1.05-1.82,2.44-3.23,4.17-4.24c1.73-1,3.74-1.5,6.02-1.5c2.24,0,4.25,0.5,6.02,1.5c1.77,1.01,3.16,2.42,4.17,4.24
			c1,1.82,1.51,3.99,1.51,6.51C1114.78,553.94,1114.28,556.09,1113.27,557.96z"/>
		<path class="st12" d="M1160.05,534.15c-2.36-1.17-5.03-1.75-8.02-1.75c-3.27,0-6.15,0.64-8.65,1.93
			c-1.74,0.89-3.17,2.06-4.31,3.47v-4.98h-7.49v37.33h7.85v-19.05c0-2.57,0.44-4.71,1.33-6.44c0.89-1.73,2.17-3.02,3.85-3.89
			c1.68-0.86,3.6-1.29,5.74-1.29c2.99,0,5.31,0.84,6.97,2.52c1.66,1.69,2.49,4.28,2.49,7.78v20.38h7.84v-21.36
			c0-3.74-0.68-6.82-2.03-9.25C1164.27,537.11,1162.41,535.31,1160.05,534.15z"/>
		<path class="st12" d="M1202.46,551.2c-1.36-0.72-2.86-1.28-4.52-1.68c-1.66-0.39-3.32-0.71-4.97-0.94
			c-1.66-0.23-3.17-0.54-4.55-0.91c-1.38-0.37-2.49-0.85-3.33-1.43c-0.84-0.58-1.26-1.46-1.26-2.62c0-1.36,0.68-2.44,2.03-3.26
			c1.36-0.81,3.38-1.22,6.09-1.22c1.82,0,3.63,0.2,5.43,0.6c1.8,0.4,3.56,1.13,5.29,2.21l3.22-6.24c-1.64-1.02-3.72-1.83-6.27-2.42
			c-2.55-0.58-5.08-0.87-7.6-0.87c-3.22,0-6.02,0.48-8.4,1.43c-2.38,0.96-4.25,2.3-5.6,4.03c-1.36,1.73-2.03,3.76-2.03,6.09
			c0,2.15,0.42,3.89,1.26,5.22c0.84,1.33,1.95,2.37,3.33,3.12c1.37,0.74,2.89,1.32,4.55,1.72c1.66,0.4,3.33,0.71,5.01,0.94
			c1.68,0.23,3.21,0.49,4.59,0.77c1.38,0.28,2.49,0.71,3.33,1.29c0.84,0.59,1.26,1.39,1.26,2.42c0,1.4-0.65,2.49-1.96,3.29
			c-1.31,0.8-3.38,1.19-6.23,1.19c-2.38,0-4.74-0.35-7.07-1.05c-2.33-0.7-4.29-1.59-5.88-2.66l-3.29,6.17
			c1.63,1.17,3.86,2.16,6.69,2.97c2.82,0.82,5.82,1.23,9,1.23c3.36,0,6.27-0.46,8.72-1.37c2.45-0.91,4.35-2.21,5.71-3.92
			c1.35-1.7,2.03-3.72,2.03-6.05c0-2.06-0.42-3.72-1.26-5.01C1204.91,552.93,1203.81,551.92,1202.46,551.2z"/>
		<path class="st12" d="M1229.42,563.98c-1.73,0-3.07-0.5-4.03-1.5c-0.96-1-1.43-2.44-1.43-4.31v-18.84h10.29v-6.44h-10.29v-8.27
			h-7.92v8.27h-6.16v6.44h6.16v19.05c0,3.97,1.09,7,3.26,9.07c2.17,2.08,5.22,3.12,9.14,3.12c1.58,0,3.12-0.21,4.59-0.63
			c1.47-0.42,2.72-1.05,3.75-1.89l-2.38-5.6C1233.04,563.47,1231.38,563.98,1229.42,563.98z"/>
		<path class="st12" d="M1251.97,538.45v-5.64h-7.49v37.33h7.85v-18.21c0-4.02,1-7.02,3.01-9c2.01-1.99,4.72-2.98,8.12-2.98
			c0.28,0,0.57,0.01,0.88,0.04c0.3,0.02,0.62,0.06,0.95,0.1v-7.7c-3.55,0-6.53,0.66-8.93,1.96
			C1254.49,535.37,1253.04,536.74,1251.97,538.45z"/>
		<path class="st12" d="M1301.21,551.87c0,2.57-0.46,4.71-1.37,6.44c-0.91,1.73-2.17,3.04-3.78,3.92c-1.61,0.89-3.51,1.33-5.71,1.33
			c-2.94,0-5.22-0.85-6.83-2.55c-1.61-1.7-2.41-4.26-2.41-7.67v-20.52h-7.84v21.36c0,3.74,0.66,6.82,2,9.25
			c1.33,2.42,3.21,4.22,5.64,5.39c2.43,1.17,5.25,1.76,8.48,1.76c2.94,0,5.61-0.64,8.02-1.93c1.67-0.89,3.05-2.05,4.17-3.42v4.93
			h7.49v-37.33h-7.84V551.87z"/>
		<path class="st12" d="M1331.6,540.76c1.77-1,3.83-1.5,6.16-1.5c1.92,0,3.7,0.43,5.36,1.29c1.66,0.87,3.07,2.18,4.24,3.96
			l6.02-3.64c-1.45-2.8-3.53-4.91-6.23-6.34c-2.71-1.43-5.81-2.14-9.31-2.14c-3.88,0-7.32,0.81-10.33,2.45
			c-3.01,1.64-5.38,3.89-7.11,6.76c-1.73,2.87-2.59,6.17-2.59,9.91c0,3.69,0.86,6.97,2.59,9.84c1.73,2.87,4.1,5.12,7.11,6.76
			c3.01,1.63,6.46,2.45,10.33,2.45c3.5,0,6.61-0.73,9.31-2.17c2.71-1.45,4.79-3.5,6.23-6.17l-6.02-3.78
			c-1.17,1.82-2.58,3.16-4.24,3.99c-1.66,0.84-3.44,1.26-5.36,1.26c-2.34,0-4.39-0.49-6.16-1.47c-1.77-0.98-3.19-2.39-4.24-4.23
			c-1.05-1.85-1.58-4-1.58-6.48c0-2.52,0.53-4.69,1.58-6.51C1328.41,543.18,1329.83,541.77,1331.6,540.76z"/>
		<path class="st12" d="M1376.42,563.98c-1.73,0-3.07-0.5-4.03-1.5c-0.96-1-1.43-2.44-1.43-4.31v-18.84h10.3v-6.44h-10.3v-8.27
			h-7.91v8.27h-6.16v6.44h6.16v19.05c0,3.97,1.09,7,3.26,9.07c2.17,2.08,5.22,3.12,9.14,3.12c1.59,0,3.12-0.21,4.59-0.63
			s2.72-1.05,3.75-1.89l-2.38-5.6C1380.04,563.47,1378.38,563.98,1376.42,563.98z"/>
		<rect x="1391.48" y="532.82" class="st12" width="7.85" height="37.33"/>
		<path class="st12" d="M1395.4,516.5c-1.5,0-2.72,0.48-3.68,1.43c-0.96,0.95-1.43,2.11-1.43,3.47c0,1.35,0.48,2.5,1.43,3.43
			c0.96,0.94,2.18,1.4,3.68,1.4c1.54,0,2.78-0.48,3.71-1.44c0.93-0.95,1.4-2.14,1.4-3.54c0-1.35-0.48-2.49-1.43-3.4
			C1398.12,516.95,1396.89,516.5,1395.4,516.5z"/>
		<path class="st12" d="M1437.95,534.84c-2.97-1.63-6.34-2.45-10.12-2.45c-3.83,0-7.21,0.81-10.16,2.45c-2.94,1.64-5.28,3.89-7,6.76
			c-1.73,2.87-2.59,6.17-2.59,9.91c0,3.69,0.86,6.97,2.59,9.84c1.73,2.87,4.06,5.12,7,6.76c2.94,1.63,6.33,2.45,10.16,2.45
			c3.74,0,7.1-0.82,10.09-2.45c2.99-1.63,5.32-3.89,7-6.76c1.68-2.87,2.52-6.15,2.52-9.84c0-3.74-0.84-7.04-2.52-9.91
			C1443.23,538.73,1440.91,536.48,1437.95,534.84z M1438.02,557.96c-1,1.87-2.39,3.29-4.17,4.27c-1.77,0.98-3.78,1.47-6.02,1.47
			c-2.29,0-4.29-0.49-6.02-1.47c-1.73-0.98-3.12-2.4-4.17-4.27c-1.05-1.87-1.58-4.02-1.58-6.45c0-2.52,0.53-4.69,1.58-6.51
			c1.05-1.82,2.44-3.23,4.17-4.24c1.73-1,3.74-1.5,6.02-1.5c2.24,0,4.25,0.5,6.02,1.5c1.78,1.01,3.17,2.42,4.17,4.24
			c1,1.82,1.51,3.99,1.51,6.51C1439.52,553.94,1439.02,556.09,1438.02,557.96z"/>
		<path class="st12" d="M1484.8,534.15c-2.36-1.17-5.03-1.75-8.02-1.75c-3.27,0-6.15,0.64-8.65,1.93c-1.74,0.9-3.17,2.06-4.31,3.47
			v-4.98h-7.49v37.33h7.85v-19.05c0-2.57,0.44-4.71,1.33-6.44c0.89-1.73,2.17-3.02,3.85-3.89c1.68-0.86,3.6-1.29,5.74-1.29
			c2.99,0,5.31,0.84,6.97,2.52c1.66,1.69,2.49,4.28,2.49,7.78v20.38h7.84v-21.36c0-3.74-0.68-6.82-2.03-9.25
			C1489.01,537.11,1487.16,535.31,1484.8,534.15z"/>
		<polygon class="st12" points="1541.14,530.01 1534.28,530.01 1534.28,542.48 1521.81,542.48 1521.81,548.79 1534.28,548.79 
			1534.28,561.25 1541.14,561.25 1541.14,548.79 1553.68,548.79 1553.68,542.48 1541.14,542.48 		"/>
	</g>
	<path class="st2" d="M470.03,13.28H208.97l-184.6,184.6v261.07l72.37,72.37v1.08h1.08l111.15,111.15H398.1l-10.88-29.98h-39.09
		H296.7h-21.9V389.39v-53.7V198.04l-94.24-27.6l-42.34-45.18l83.17-82h236.23L470.03,13.28z M90.12,482.3l-35.77-35.77v-57.14h42.39
		v99.53L90.12,482.3z M172.92,389.39V565.1l-48.38-48.38V389.39H172.92z M243.11,613.57H238h-6.54h-10.07l-20.66-20.66V389.39h42.39
		V613.57z M164.8,196.36l78.32,23.94v115.39H54.34V210.3l62.59-63.76L164.8,196.36z"/>
	<polygon class="st2" points="441.75,204.58 441.75,88.46 440.84,88.46 413.95,88.46 254.9,88.46 241,88.46 227.1,88.46 
		227.1,154.29 254.9,160.76 254.9,116.26 413.95,116.26 413.95,212.05 	"/>
	<linearGradient id="SVGID_1_" gradientUnits="userSpaceOnUse" x1="481.955" y1="13.2805" x2="481.955" y2="686.7195">
		<stop  offset="0" style="stop-color:#22273F"/>
		<stop  offset="0.2452" style="stop-color:#3D5652"/>
	</linearGradient>
	<path class="st13" d="M449.78,25.5l7.84,17.77l135.48,135.48V315.5H513.3v-99.97l-203.89,59.41v32.8l173.91-53.23v129.15
		l29.98,30.17v-68.36h79.78v132.61v42.4v18.91v29.1c-0.41,1.7-0.82,2.95-1,4.23c-4.67,33.42-31.19,56.75-61.91,54.43
		c-12.46-0.94-23.38-5.02-32.19-11.57l0.04-0.04c-8.25-6.34-13.36-13.9-16.08-18.79c-0.38-0.71-0.77-1.4-1.12-2.13
		c-0.13-0.26-0.25-0.5-0.36-0.73c-3.96-8.54-6.12-18.4-6.13-29.2c-0.01-37.8-0.1-75.61-0.04-113.41
		c0.05-35.4-13.83-66.52-36.55-88.09c-17.94-17.03-41.99-26.14-66.73-26.12l-61.75,0.03v52.57h45.97
		c31.31-0.63,59.37,25.82,59.76,61.84c0.45,40.84-0.73,81.71,0.54,122.52c1.85,59.86,48.21,106.45,109.83,112.24
		c54.98,5.17,111.66-35.37,124.34-90.66c2.25-9.79,3.77-17.66,4.91-27.12v-29.1v-80.45v-9.91V197.88l-184.6-184.6L449.78,25.5z"/>
</g>
</svg>
